# xmcd
# Track frame offsets:
# 150
# 20910
# 34519
# 48808
# 60242
# 75669
# 97050
# 108637
# 122996
# 136425
# 149840
# 163143
# 178517
# 199622
# 209832
# 222514
#
# Disc length: 3119 seconds
# Revision: 0
# Processed by: cddbd v1.5.1PL0 Copyright (c) Steve Scherf et al.
# Submitted via: VisiTrax 2.9.10.228 - For more info visit www.synapsa.com
#
DISCID=f80c2d10
DTITLE=Various Artist - Classic Country Hits - Disc 4
DYEAR=1980
DGENRE=Country
TTITLE0=Ricky Skaggs - Somebody's Praying
TTITLE1=Glen Campbell - Southern Nights
TTITLE2=Lefty Frizzell - Always Late (With Your Kisses)
TTITLE3=Charlie Rich - America The Beautiful
TTITLE4=Tanya Tucker - Delta Dawn
TTITLE5=Marty Robbins - El Paso City
TTITLE6=Dave And Sugar - Golden Tears
TTITLE7=Carlie Rich and Janie Fricke - On My Knees
TTITLE8=Merle Haggard - The Fightin' Side Of Me
TTITLE9=Moe Bandy - Yesterday Once More
TTITLE10=Jerry Lee Lewis - You Win Again
TTITLE11=B.J. Thomas - Hey Wont You Play
TTITLE12=Marty Robbins - El Paso
TTITLE13=Andy Williams - In The Summertime You Dont Want My Love
TTITLE14=Becky Hobbs and Moe Bandy - Lets Get Over Them Together
TTITLE15=Carl Smith - Loose Talk
EXTD=
EXTT0=
EXTT1=
EXTT2=
EXTT3=
EXTT4=
EXTT5=
EXTT6=
EXTT7=
EXTT8=
EXTT9=
EXTT10=
EXTT11=
EXTT12=
EXTT13=
EXTT14=
EXTT15=
PLAYORDER=
